<?xml version="1.0" encoding="utf-8"?>
<!-- Generator: Adobe Illustrator 22.0.0, SVG Export Plug-In . SVG Version: 6.00 Build 0)  -->
<svg version="1.1" id="图层_1" xmlns="http://www.w3.org/2000/svg" xmlns:xlink="http://www.w3.org/1999/xlink" x="0px" y="0px"
	 viewBox="0 0 72 72" style="enable-background:new 0 0 72 72;" xml:space="preserve">
<style type="text/css">
	.st0{fill:#979797;}
	.st1{fill:none;stroke:#979797;}
</style>
<g id="打卡">
	<g id="分组-6">
		<g id="附件" transform="translate(22.500000, 20.962025)">
			<path id="路径" class="st0" d="M25.5,14.9c0,0-0.1,0.1-0.1,0.1L14,26.4c0,0-0.1,0-0.1,0.1c-2.8,2.8-7.4,2.7-10.2-0.1
				C0.9,23.6,0.8,19,3.6,16.2C3.8,16,16.6,3.2,16.7,3c2-2,5.3-2,7.3,0c1,1,1.5,2.2,1.5,3.6c0,1.4-0.5,2.7-1.5,3.6L10.8,23.4
				c-1.1,1-2.8,1-3.9-0.1c-1.1-1.1-1.1-2.8-0.1-3.9c0,0,0,0,0.1-0.1l0,0c0,0,0,0,0,0l0,0c0,0,0,0,0,0L18.4,7.9
				c0.3-0.3,0.3-0.8,0-1.1c-0.3-0.3-0.8-0.3-1.1,0L5.8,18.3c0,0,0,0,0,0l-0.1,0.1c-0.1,0.1-0.1,0.1-0.1,0.2
				c-1.4,1.7-1.3,4.2,0.3,5.8c1.7,1.7,4.3,1.7,6,0.1c0,0,0,0,0,0L25,11.4c1.3-1.3,2-2.9,2-4.7c0-1.8-0.7-3.5-1.9-4.7
				c-2.6-2.6-6.8-2.6-9.4,0L2.5,15.1c0,0,0,0,0,0c-3.4,3.4-3.3,9,0.1,12.4c1.7,1.7,4,2.6,6.3,2.6c2.2,0,4.4-0.8,6.1-2.4c0,0,0,0,0,0
				c0,0,0,0,0,0l0.1-0.1c0,0,0,0,0,0l11.4-11.4c0,0,0,0,0,0c0,0,0,0,0.1-0.1c0.3-0.3,0.3-0.8,0-1.1C26.3,14.6,25.8,14.6,25.5,14.9
				L25.5,14.9z"/>
		</g>
		<path id="矩形" class="st1" d="M4.5,0.5h63c2.2,0,4,1.8,4,4v63c0,2.2-1.8,4-4,4h-63c-2.2,0-4-1.8-4-4v-63
			C0.5,2.3,2.3,0.5,4.5,0.5z"/>
	</g>
</g>
</svg>
